<svg display="none" xmlns="http://www.w3.org/2000/svg">


<symbol id="facebook" viewBox="0 0 96.124 96.123">

<g>
<path d="M72.089,0.02L59.624,0C45.62,0,36.57,9.285,36.57,23.656v10.907H24.037c-1.083,0-1.96,0.878-1.96,1.961v15.803
		c0,1.083,0.878,1.96,1.96,1.96h12.533v39.876c0,1.083,0.877,1.96,1.96,1.96h16.352c1.083,0,1.96-0.878,1.96-1.96V54.287h14.654
		c1.083,0,1.96-0.877,1.96-1.96l0.006-15.803c0-0.52-0.207-1.018-0.574-1.386c-0.367-0.368-0.867-0.575-1.387-0.575H56.842v-9.246
		c0-4.444,1.059-6.7,6.848-6.7l8.397-0.003c1.082,0,1.959-0.878,1.959-1.96V1.98C74.046,0.899,73.17,0.022,72.089,0.02z"/>
</g>
</symbol>

<!-- twitter -->
<symbol id="Layer_1" viewBox="0 0 410.155 410.155">

<g>
<path  d="M403.632,74.18c-9.113,4.041-18.573,7.229-28.28,9.537c10.696-10.164,18.738-22.877,23.275-37.067
	l0,0c1.295-4.051-3.105-7.554-6.763-5.385l0,0c-13.504,8.01-28.05,14.019-43.235,17.862c-0.881,0.223-1.79,0.336-2.702,0.336
	c-2.766,0-5.455-1.027-7.57-2.891c-16.156-14.239-36.935-22.081-58.508-22.081c-9.335,0-18.76,1.455-28.014,4.325
	c-28.672,8.893-50.795,32.544-57.736,61.724c-2.604,10.945-3.309,21.9-2.097,32.56c0.139,1.225-0.44,2.08-0.797,2.481
	c-0.627,0.703-1.516,1.106-2.439,1.106c-0.103,0-0.209-0.005-0.314-0.015c-62.762-5.831-119.358-36.068-159.363-85.14l0,0
	c-2.04-2.503-5.952-2.196-7.578,0.593l0,0C13.677,65.565,9.537,80.937,9.537,96.579c0,23.972,9.631,46.563,26.36,63.032
	c-7.035-1.668-13.844-4.295-20.169-7.808l0,0c-3.06-1.7-6.825,0.485-6.868,3.985l0,0c-0.438,35.612,20.412,67.3,51.646,81.569
	c-0.629,0.015-1.258,0.022-1.888,0.022c-4.951,0-9.964-0.478-14.898-1.421l0,0c-3.446-0.658-6.341,2.611-5.271,5.952l0,0
	c10.138,31.651,37.39,54.981,70.002,60.278c-27.066,18.169-58.585,27.753-91.39,27.753l-10.227-0.006
	c-3.151,0-5.816,2.054-6.619,5.106c-0.791,3.006,0.666,6.177,3.353,7.74c36.966,21.513,79.131,32.883,121.955,32.883
	c37.485,0,72.549-7.439,104.219-22.109c29.033-13.449,54.689-32.674,76.255-57.141c20.09-22.792,35.8-49.103,46.692-78.201
	c10.383-27.737,15.871-57.333,15.871-85.589v-1.346c-0.001-4.537,2.051-8.806,5.631-11.712c13.585-11.03,25.415-24.014,35.16-38.591
	l0,0C411.924,77.126,407.866,72.302,403.632,74.18L403.632,74.18z"/>
</g>
</symbol>
<!-- twitter end-->


<!-- linkedin -->
<symbol id="Layer_2" viewBox="0 0 22.258 22.258">

<g>
<path d="M5.366,2.973c0,1.376-1.035,2.479-2.699,2.479H2.636C1.034,5.453,0,4.348,0,2.973c0-1.409,1.067-2.482,2.698-2.482
		C4.331,0.49,5.336,1.564,5.366,2.973z M0.28,21.766h4.772V7.413H0.28V21.766z M16.764,7.077c-2.531,0-3.664,1.39-4.301,2.37v0.046
		h-0.031c0.012-0.014,0.023-0.03,0.031-0.046V7.414H7.692c0.062,1.345,0,14.353,0,14.353h4.771v-8.016
		c0-0.432,0.029-0.855,0.157-1.164c0.346-0.854,1.132-1.747,2.446-1.747c1.729,0,2.42,1.319,2.42,3.247v7.68h4.771v-8.229
		C22.258,9.126,19.902,7.077,16.764,7.077z"/>
</g>
</symbol>
<!-- end-->

<!-- Youtube -->
<symbol id="Layer_3" viewBox="-21 -117 682.66672 682">

<g>
<path id="youtube" d="m626.8125 64.035156c-7.375-27.417968-28.992188-49.03125-56.40625-56.414062-50.082031-13.703125-250.414062-13.703125-250.414062-13.703125s-200.324219 0-250.40625 13.183593c-26.886719 7.375-49.03125 29.519532-56.40625 56.933594-13.179688 50.078125-13.179688 153.933594-13.179688 153.933594s0 104.378906 13.179688 153.933594c7.382812 27.414062 28.992187 49.027344 56.410156 56.410156 50.605468 13.707031 250.410156 13.707031 250.410156 13.707031s200.324219 0 250.40625-13.183593c27.417969-7.378907 49.03125-28.992188 56.414062-56.40625 13.175782-50.082032 13.175782-153.933594 13.175782-153.933594s.527344-104.382813-13.183594-154.460938zm-370.601562 249.878906v-191.890624l166.585937 95.945312zm0 0"/>
</g>
</symbol>


<!-- Pinterest -->
<symbol id="Layer_4" viewBox="0 0 480.666 480.666">
<g id="pinterest_2_">
<g>
<path d="M240.35,0.008C107.612,0.008,0,107.605,0,240.31c0,98.431,59.168,182.967,143.867,220.133
			c-0.717-16.795-0.157-36.918,4.145-55.17c4.646-19.522,30.957-130.976,30.957-130.976s-7.669-15.345-7.669-38.009
			c0-35.623,20.637-62.215,46.323-62.215c21.885,0,32.421,16.429,32.421,36.076c0,21.962-13.996,54.85-21.198,85.283
			c-6.016,25.5,12.781,46.301,37.907,46.301c45.545,0,76.221-58.506,76.221-127.781c0-52.66-35.478-92.087-100.006-92.087
			c-72.916,0-118.305,54.359-118.305,115.077c0,20.949,6.142,35.702,15.837,47.127c4.428,5.268,5.051,7.388,3.43,13.405
			c-1.154,4.427-3.773,15.072-4.895,19.28c-1.592,6.096-6.516,8.262-12.033,6.033c-33.573-13.733-49.192-50.471-49.192-91.814
			c0-68.279,57.578-150.125,171.736-150.125c91.773,0,152.189,66.377,152.189,137.654c0,94.277-52.434,164.723-129.713,164.723
			c-25.937,0-50.346-14.045-58.701-29.975c0,0-13.965,55.389-16.894,66.065c-5.113,18.517-15.089,37.058-24.193,51.491
			c21.605,6.375,44.454,9.85,68.116,9.85c132.736,0,240.316-107.595,240.316-240.348C480.666,107.605,373.086,0.008,240.35,0.008z"
			/>
</g>
</symbol>


</svg>