<svg xmlns="http://www.w3.org/2000/svg" viewBox="0 0 62 63" width="62" height="63">
	<style>
		tspan { white-space:pre }
		.shp0 { fill: #ff6363 } 
	</style>
	<g id="How It Works">
		<g id="Search">
			<path id="" class="shp0" d="M31 1.55C35.12 1.55 39.02 2.32 42.67 3.87C46.33 5.41 49.51 7.55 52.23 10.27C54.95 12.99 57.09 16.17 58.63 19.83C60.18 23.48 60.95 27.38 60.95 31.5C60.95 35.63 60.18 39.52 58.63 43.17C57.09 46.83 54.95 50.02 52.23 52.73C49.51 55.45 46.33 57.59 42.67 59.13C39.02 60.68 35.12 61.45 31 61.45C26.87 61.45 22.98 60.68 19.33 59.13C15.67 57.59 12.48 55.45 9.77 52.73C7.05 50.02 4.91 46.83 3.37 43.17C1.82 39.52 1.05 35.63 1.05 31.5C1.05 27.38 1.82 23.48 3.37 19.83C4.91 16.17 7.05 12.99 9.77 10.27C12.48 7.55 15.67 5.41 19.33 3.87C22.98 2.32 26.87 1.55 31 1.55L31 1.55ZM31 59.06C34.84 59.06 38.43 58.34 41.76 56.88C45.08 55.43 48.02 53.49 50.55 51.05C52.98 48.52 54.93 45.59 56.38 42.26C57.84 38.93 58.56 35.35 58.56 31.5C58.56 27.66 57.84 24.07 56.38 20.74C54.93 17.42 52.98 14.48 50.55 11.95C48.02 9.52 45.08 7.57 41.76 6.12C38.43 4.66 34.84 3.94 31 3.94C27.15 3.94 23.57 4.66 20.24 6.12C16.91 7.57 13.98 9.52 11.45 11.95C9.01 14.48 7.07 17.42 5.62 20.74C4.16 24.07 3.44 27.66 3.44 31.5C3.44 35.35 4.16 38.93 5.62 42.26C7.07 45.59 9.01 48.52 11.45 51.05C13.98 53.49 16.91 55.43 20.24 56.88C23.57 58.34 27.15 59.06 31 59.06L31 59.06ZM46.05 20.81C46.33 20.44 46.73 20.25 47.24 20.25C47.76 20.25 48.2 20.44 48.58 20.81C48.86 21.19 49 21.63 49 22.15C49 22.66 48.81 23.06 48.44 23.34L27.91 43.31C27.81 43.5 27.65 43.62 27.41 43.66C27.18 43.71 26.97 43.73 26.78 43.73C26.5 43.73 26.24 43.71 26.01 43.66C25.77 43.62 25.61 43.5 25.52 43.31L17.5 35.3C17.12 34.92 16.94 34.48 16.94 33.96C16.94 33.45 17.12 33.05 17.5 32.77C17.78 32.39 18.18 32.2 18.7 32.2C19.21 32.2 19.66 32.39 20.03 32.77L26.78 39.52L46.05 20.81L46.05 20.81Z" />
		</g>
	</g>
</svg>